<svg xmlns="http://www.w3.org/2000/svg" width="28" height="28" viewBox="0 0 28 28" fill="none">
  <path d="M24.3 14.3c0-.7-.1-1.2-.2-1.8H14v3.4h5.8c-.1.8-.7 2-1.9 2.8v2.2h3.1c1.8-1.7 3.3-4.2 3.3-6.6z" fill="#4285F4"/>
  <path d="M14 24.8c2.9 0 5.3-.9 7.1-2.6l-3.1-2.2c-.8.6-2 1.1-4 1.1-3 0-5.5-2-6.4-4.7H4.4v2.3c1.8 3.5 5.4 6.1 9.6 6.1z" fill="#34A853"/>
  <path d="M7.6 16.4c-.3-.8-.4-1.6-.4-2.4s.1-1.6.4-2.4V9.3H4.4A10.8 10.8 0 0 0 3.2 14c0 1.7.4 3.3 1.2 4.7l3.2-2.3z" fill="#FBBC05"/>
  <path d="M14 6.9c2.1 0 3.5.9 4.3 1.6l2.6-2.6C19.3 4.4 16.9 3.2 14 3.2 9.8 3.2 6.2 5.8 4.4 9.3l3.2 2.3c.9-2.7 3.4-4.7 6.4-4.7z" fill="#EA4335"/>
</svg>
