<svg preserveAspectRatio="xMidYMid meet" width="100%" height="100%" overflow="visible" style="display: block;" viewBox="0 0 9.59668 16.7778" fill="none" xmlns="http://www.w3.org/2000/svg">
<path id="Union" d="M3.69629 8.7627C5.76793 8.76273 7.35158 9.14158 8.36523 10.252C9.35972 11.3417 9.59668 12.9181 9.59668 14.7217C9.59631 15.2646 9.2814 15.6473 8.98535 15.876C8.69555 16.0998 8.3342 16.2524 7.97852 16.3633C7.25746 16.5881 6.30325 16.7183 5.26758 16.7764C4.77152 16.8042 4.34651 16.4247 4.31836 15.9287C4.29056 15.4324 4.67071 15.0073 5.16699 14.9795C6.14235 14.9248 6.92791 14.8062 7.44336 14.6455C7.60614 14.5947 7.71763 14.5448 7.79102 14.5068C7.77046 12.8917 7.5166 11.9935 7.03516 11.4658C6.55144 10.9361 5.6346 10.5635 3.69629 10.5635C3.1994 10.5635 2.79616 10.1599 2.7959 9.66309C2.7959 9.16603 3.19923 8.7627 3.69629 8.7627ZM3.75 0C5.82107 0 7.5 1.67893 7.5 3.75C7.49997 5.82104 5.82105 7.5 3.75 7.5C1.67906 7.49987 2.93751e-05 5.82096 0 3.75C0 1.67901 1.67904 0.000131939 3.75 0ZM3.75 1.7998C2.67316 1.79994 1.7998 2.67313 1.7998 3.75C1.79983 4.82685 2.67317 5.70006 3.75 5.7002C4.82694 5.7002 5.70017 4.82693 5.7002 3.75C5.7002 2.67304 4.82696 1.7998 3.75 1.7998Z" fill="var(--fill-0, white)" fill-opacity="0.6"/>
</svg>
