<svg preserveAspectRatio="xMidYMid meet" width="100%" height="100%" overflow="visible" style="display: block;" viewBox="0 0 11.1187 10.0409" fill="none" xmlns="http://www.w3.org/2000/svg">
<path id="like" d="M2.72726 1.05236C2.39858 1.11897 1.80033 1.42927 1.40403 2.01368C1.02985 2.56546 0.811881 3.39717 1.26618 4.58576C1.62195 5.51655 2.42665 6.46251 3.33862 7.27582C4.13199 7.98336 4.96644 8.55526 5.55934 8.8942C6.15224 8.55526 6.9867 7.98336 7.78006 7.27582C8.69203 6.46251 9.49673 5.51655 9.8525 4.58576C10.3068 3.39717 10.0888 2.56546 9.71465 2.01368C9.31835 1.42927 8.72011 1.11897 8.39142 1.05236C7.00875 0.772165 6.23483 1.66023 5.55934 2.61502C4.88379 1.66013 4.10067 0.774042 2.72726 1.05236ZM5.55934 1.2426C6.36983 0.22583 7.48248 -0.163181 8.59218 0.0616979C9.17596 0.180001 10.0042 0.639707 10.5512 1.44637C11.1204 2.28566 11.3626 3.46608 10.7967 4.94664C10.3551 6.10183 9.40852 7.17791 8.45283 8.03021C7.4897 8.88914 6.46367 9.56796 5.79355 9.91839L5.55934 10.0409L5.32514 9.91839C4.65502 9.56796 3.62898 8.88914 2.66585 8.03021C1.71016 7.17791 0.763536 6.10183 0.322002 4.94664C-0.243895 3.46608 -0.00170232 2.28566 0.567444 1.44637C1.11447 0.639707 1.94272 0.180001 2.5265 0.0616979C3.6362 -0.163181 4.74885 0.22583 5.55934 1.2426Z" fill="var(--fill-0, black)" fill-opacity="0.48"/>
</svg>
