<svg preserveAspectRatio="none" width="100%" height="100%" overflow="visible" style="display: block;" viewBox="0 0 99.4208 72.153" fill="none" xmlns="http://www.w3.org/2000/svg">
<g id="stroke">
<path d="M56.0696 0.563952C62.9844 2.48307 68.5813 10.2161 68.3508 25.3638C77.4925 27.8292 101.287 34.5516 99.304 48.1919C98.2282 55.5879 89.447 60.5093 83.4707 63.3671C79.0834 65.4651 61.1337 75.2924 55.926 71.1411C54.4115 69.9336 54.8043 67.8369 55.5227 66.2934C54.7551 65.9369 54.1399 65.3003 53.8997 64.4761C53.04 61.5246 56.3231 59.2919 58.5374 58.186C57.6218 57.5338 56.7766 56.6625 56.5442 55.5249C55.2103 48.9918 74.5993 46.458 78.3001 45.7641L78.8899 48.9097C73.7091 49.8811 63.546 50.6747 59.7239 54.9556C60.4168 55.996 61.8127 56.4618 62.9641 56.7798L62.9749 59.8911C60.9948 60.42 57.7687 61.2228 57.0315 63.4458C58.3922 63.7904 60.1176 63.2694 61.4807 63.1284C60.3243 64.7315 58.4063 66.6209 58.0842 68.6431C65.1542 69.2484 76.0216 63.3822 82.0898 60.4804C86.9273 58.1672 95.2464 53.8523 96.137 47.7319C97.8977 35.6272 72.7956 29.8143 65.0754 27.813C65.3715 19.535 64.9319 6.34402 55.2141 3.64696C43.4328 0.377466 40.695 16.4559 42.9046 24.6089C43.6269 27.2742 45.3298 29.2888 48.2063 29.4907C53.6359 29.8717 59.4354 28.5266 61.3772 27.9321L62.3137 30.9917C60.1723 31.6472 53.9529 33.102 47.9827 32.6831C43.7505 32.3861 40.8912 29.4142 39.8157 25.4458C36.9349 14.8155 41.6443 -3.43916 56.0696 0.563952Z" fill="var(--fill-0, #6633F5)"/>
<path d="M77.6656 62.7558L74.525 63.3671L71.9 49.8671L75.0406 49.2558L77.6656 62.7558Z" fill="var(--fill-0, #6633F5)"/>
<path d="M47.8199 14.3739V18.7489H44.6207V14.3739H47.8199Z" fill="var(--fill-0, #6633F5)"/>
<path d="M54.1949 14.4989V18.3739H50.9957V14.4989H54.1949Z" fill="var(--fill-0, #6633F5)"/>
<path d="M59.8199 19.2489C59.8199 25.4046 52.1497 27.8131 47.8043 24.0888L49.8863 21.6591C52.192 23.6354 56.6207 22.7042 56.6207 19.2489H59.8199Z" fill="var(--fill-0, #6633F5)"/>
<path d="M16.8308 39.4365C11.952 42.5464 7.69897 46.4202 5.27612 50.4248C-0.215815 59.5019 6.53246 66.758 16.1521 66.5371C19.1189 66.4689 27.0771 64.5732 21.4822 61.9756L22.6619 59.0068C27.7329 60.6971 27.4067 55.9563 22.2078 56.124L21.8806 52.9482C25.6279 52.2935 24.0944 50.3601 20.8835 51.0849L20.1785 47.9638C23.5277 47.2078 30.1197 49.5911 26.9119 53.8164C31.0077 55.708 31.5004 61.4339 26.5896 62.373C29.6953 68.0865 19.7221 69.656 16.2253 69.7363C3.95155 70.0181 -4.45593 60.327 2.53784 48.7675C5.30306 44.1973 9.98885 40.0023 15.1111 36.7373L16.8308 39.4365Z" fill="var(--fill-0, #6633F5)"/>
<path d="M71.8296 6.47354C63.3818 11.8495 51.6839 12.8821 42.0738 10.4237L42.8668 7.32413C51.623 9.56409 62.4053 8.67768 70.1109 3.77432L71.8296 6.47354Z" fill="var(--fill-0, #6633F5)"/>
</g>
</svg>
