<svg preserveAspectRatio="xMidYMid meet" width="100%" height="100%" overflow="visible" style="display: block;" viewBox="0 0 43.4841 43.0992" fill="none" xmlns="http://www.w3.org/2000/svg">
<path id="live_entrance" d="M31.3407 3.26383C31.7575 2.90143 31.8016 2.2698 31.4392 1.85305L30.1268 0.343836C29.7644 -0.0729209 29.1328 -0.116988 28.716 0.24541L21.6123 6.42253L14.868 0.291321C14.4593 -0.0801863 13.8269 -0.0500696 13.4554 0.358588L12.11 1.83847C11.7385 2.24713 11.7687 2.87957 12.1773 3.25108L16.4495 7.13488C7.21075 7.40352 2.99127 9.25946 1.28591 15.0996H5.52398C5.8494 14.3561 6.22724 13.8289 6.64343 13.4307C7.31615 12.787 8.41003 12.1736 10.4507 11.7397C12.5274 11.2981 15.3078 11.0992 19.0939 11.0992H24.4689C28.255 11.0992 31.0354 11.2981 33.1121 11.7397C35.1527 12.1736 36.2466 12.787 36.9193 13.4307C37.3355 13.8289 37.7134 14.3561 38.0388 15.0996H42.2769C40.5582 9.21386 36.286 7.37478 26.8959 7.12887L31.3407 3.26383ZM19.0939 43.0992C7.99877 43.0992 3.14666 41.4696 1.28617 35.0996H5.52437C5.8497 35.8426 6.22741 36.3696 6.64343 36.7676C7.31615 37.4113 8.41003 38.0247 10.4507 38.4586C12.5274 38.9002 15.3078 39.0992 19.0939 39.0992H24.4689C28.255 39.0992 31.0354 38.9002 33.1121 38.4586C35.1527 38.0247 36.2466 37.4113 36.9193 36.7676C37.3354 36.3696 37.7131 35.8426 38.0384 35.0996H42.2766C40.4161 41.4696 35.564 43.0992 24.4689 43.0992H19.0939ZM3.696 17.7946H0V32.5996H9.429V29.2606H3.696V17.7946ZM15.3592 17.7946H11.6632V32.5996H15.3592V17.7946ZM21.4065 17.7946H17.5215L21.4905 32.5996H27.5386L31.5286 17.7946H27.6016L24.5146 30.4156L21.4065 17.7946ZM43.4211 17.7946H33.6981V32.5996H43.4841V29.4706H37.3731V26.3626H42.0981V23.2126H37.3731V20.9236H43.4211V17.7946Z" fill="var(--fill-0, black)"/>
</svg>
