<svg preserveAspectRatio="xMidYMid meet" width="100%" height="100%" overflow="visible" style="display: block;" viewBox="0 0 30 30" fill="none" xmlns="http://www.w3.org/2000/svg">
<path id="Union" d="M29.7071 3.12132C30.0976 2.7308 30.0976 2.09763 29.7071 1.70711L28.2929 0.292894C27.9024 -0.0976309 27.2692 -0.0976313 26.8787 0.292893L15 12.1716L3.12132 0.292895C2.7308 -0.0976285 2.09763 -0.0976294 1.70711 0.292895L0.292893 1.70711C-0.0976311 2.09763 -0.0976311 2.7308 0.292893 3.12132L12.1716 15L0.292894 26.8787C-0.0976301 27.2692 -0.0976311 27.9024 0.292893 28.2929L1.70711 29.7071C2.09763 30.0976 2.7308 30.0976 3.12132 29.7071L15 17.8284L26.8787 29.7071C27.2692 30.0976 27.9024 30.0976 28.2929 29.7071L29.7071 28.2929C30.0976 27.9024 30.0976 27.2692 29.7071 26.8787L17.8284 15L29.7071 3.12132Z" fill="var(--fill-0, black)"/>
</svg>
