<svg preserveAspectRatio="none" width="100%" height="100%" overflow="visible" style="display: block;" viewBox="0 0 11.7039 10.5693" fill="none" xmlns="http://www.w3.org/2000/svg">
<path id="like" d="M2.8708 1.10775C2.52482 1.17786 1.89509 1.5045 1.47792 2.11966C1.08405 2.70049 0.854612 3.57596 1.33282 4.82711C1.70732 5.8069 2.55437 6.80265 3.51434 7.65876C4.34946 8.40354 5.22784 9.00554 5.85194 9.36232C6.47604 9.00554 7.35442 8.40354 8.18954 7.65876C9.1495 6.80265 9.99656 5.8069 10.3711 4.82711C10.8493 3.57596 10.6198 2.70049 10.226 2.11966C9.80879 1.5045 9.17906 1.17786 8.83308 1.10775C7.37763 0.812805 6.56298 1.74761 5.85194 2.75265C5.14083 1.74751 4.31649 0.814781 2.8708 1.10775ZM5.85194 1.308C6.70509 0.237716 7.8763 -0.171769 9.0444 0.0649451C9.65891 0.189475 10.5308 0.673375 11.1066 1.52249C11.7057 2.40595 11.9606 3.64851 11.3649 5.20699C10.9002 6.42298 9.9037 7.55569 8.89772 8.45285C7.8839 9.35699 6.80386 10.0715 6.09847 10.4404L5.85194 10.5693L5.60541 10.4404C4.90002 10.0715 3.81998 9.35699 2.80616 8.45285C1.80017 7.55569 0.803722 6.42298 0.338949 5.20699C-0.256732 3.64851 -0.00179192 2.40595 0.59731 1.52249C1.17312 0.673375 2.04497 0.189475 2.65948 0.0649451C3.82758 -0.171769 4.99879 0.237715 5.85194 1.308Z" fill="var(--fill-0, black)" fill-opacity="0.48"/>
</svg>
