<svg preserveAspectRatio="xMidYMid meet" width="100%" height="100%" overflow="visible" style="display: block;" viewBox="0 0 22.1667 22.1673" fill="none" xmlns="http://www.w3.org/2000/svg">
<g id="google">
<path id="Clip 16" fill-rule="evenodd" clip-rule="evenodd" d="M22.1667 11.3349C22.1667 10.5491 22.0948 9.79333 21.961 9.06791H11.3095V13.3552H17.3961C17.1339 14.7406 16.3371 15.9145 15.1394 16.7003V19.4813H18.7944C20.9329 17.5517 22.1667 14.7104 22.1667 11.3349Z" fill="var(--fill-0, #4285F4)"/>
<path id="Clip 19" fill-rule="evenodd" clip-rule="evenodd" d="M11.3092 22.1673C14.3628 22.1673 16.9229 21.1748 18.7941 19.4821L15.1391 16.7012C14.1263 17.3662 12.8309 17.7591 11.3092 17.7591C8.36355 17.7591 5.87026 15.8094 4.98099 13.1897H1.20256V16.0614C3.0635 19.6836 6.88812 22.1673 11.3092 22.1673Z" fill="var(--fill-0, #34A853)"/>
<path id="Clip 22" fill-rule="evenodd" clip-rule="evenodd" d="M4.98136 13.1889C4.75512 12.5239 4.62659 11.8136 4.62659 11.083C4.62659 10.3526 4.75512 9.64223 4.98136 8.97721V6.10567H1.20293C0.436979 7.6019 0 9.29462 0 11.083C0 12.8715 0.436979 14.5643 1.20293 16.0605L4.98136 13.1889Z" fill="var(--fill-0, #FBBC04)"/>
<path id="Clip 25" fill-rule="evenodd" clip-rule="evenodd" d="M11.3092 4.4082C12.9696 4.4082 14.4605 4.96744 15.6325 6.06568L18.8764 2.88676C16.9177 1.09834 14.3576 4.07696e-05 11.3092 4.07696e-05C6.88812 4.07696e-05 3.0635 2.48374 1.20256 6.10602L4.98099 8.97755C5.87026 6.35787 8.36355 4.4082 11.3092 4.4082Z" fill="var(--fill-0, #EA4335)"/>
</g>
</svg>
