<svg preserveAspectRatio="xMidYMid meet" width="100%" height="100%" overflow="visible" style="display: block;" viewBox="0 0 20.5 21.1386" fill="none" xmlns="http://www.w3.org/2000/svg">
<path id="Subtract" d="M9.52832 0.106392C9.9989 -0.0354641 10.5011 -0.0354641 10.9717 0.106392C11.5059 0.267465 11.9789 0.691944 12.9238 1.54096L18.377 6.44135C19.1585 7.14358 19.5498 7.49474 19.8301 7.91596C20.0784 8.2892 20.2624 8.7015 20.374 9.13569C20.5 9.62572 20.5 10.1514 20.5 11.2021V14.7392C20.5 16.9792 20.5003 18.0994 20.0645 18.955C19.681 19.7075 19.0689 20.3196 18.3164 20.7031C17.4608 21.139 16.3398 21.1386 14.0996 21.1386H6.40039C4.16018 21.1386 3.03924 21.139 2.18359 20.7031C1.43112 20.3196 0.818977 19.7075 0.435547 18.955C-0.000316957 18.0994 7.73391e-10 16.9792 6.68038e-10 14.7392V11.2021C6.68038e-10 10.1514 -1.02956e-05 9.62572 0.125977 9.13569C0.237628 8.7015 0.421561 8.2892 0.669922 7.91596C0.950237 7.49474 1.34147 7.14358 2.12305 6.44135L7.57715 1.54096C8.52191 0.692121 8.9942 0.267449 9.52832 0.106392ZM10.25 10.039C9.64265 10.039 9.15065 10.5313 9.15039 11.1386V16.6386C9.15039 17.2461 9.64249 17.7382 10.25 17.7382C10.8575 17.7382 11.3496 17.2461 11.3496 16.6386V11.1386C11.3493 10.5313 10.8574 10.039 10.25 10.039Z" fill="var(--fill-0, #F6F6F6)"/>
</svg>
