<svg preserveAspectRatio="none" width="100%" height="100%" overflow="visible" style="display: block;" viewBox="0 0 12.4999 12.4999" fill="none" xmlns="http://www.w3.org/2000/svg">
<path id="Tint" d="M11.1992 0.122039C11.3619 -0.0406458 11.6253 -0.0405782 11.7881 0.122039L12.3779 0.710906C12.5406 0.873625 12.5406 1.13803 12.3779 1.30075L7.42868 6.24997L12.3779 11.1992C12.5404 11.3618 12.5403 11.6253 12.3779 11.7881L11.7881 12.3779C11.6253 12.5403 11.3618 12.5405 11.1992 12.3779L6.24997 7.42868L1.30075 12.3779C1.13803 12.5406 0.873624 12.5406 0.710906 12.3779L0.122039 11.7881C-0.0405777 11.6253 -0.0406455 11.3619 0.122039 11.1992L5.07126 6.24997L0.122039 1.30075C-0.0406796 1.13803 -0.0406796 0.873624 0.122039 0.710906L0.710906 0.122039C0.873624 -0.0406797 1.13803 -0.0406795 1.30075 0.122039L6.24997 5.07126L11.1992 0.122039Z" fill="var(--fill-0, black)"/>
</svg>
