<svg preserveAspectRatio="none" width="100%" height="100%" overflow="visible" style="display: block;" viewBox="0 0 12.8332 11.5892" fill="none" xmlns="http://www.w3.org/2000/svg">
<path id="like" d="M3.14781 1.21464C2.76844 1.29151 2.07795 1.64967 1.62053 2.32419C1.18865 2.96106 0.937074 3.92101 1.46143 5.29289C1.87206 6.36721 2.80085 7.45904 3.85344 8.39777C4.76915 9.21441 5.73228 9.87449 6.4166 10.2657C7.10092 9.87449 8.06405 9.21441 8.97976 8.39777C10.0324 7.45904 10.9611 6.36721 11.3718 5.29289C11.8961 3.92101 11.6445 2.96106 11.2127 2.32419C10.7553 1.64967 10.0648 1.29151 9.68539 1.21464C8.08951 0.891234 7.19625 1.91624 6.4166 3.01826C5.63687 1.91613 4.733 0.8934 3.14781 1.21464ZM6.4166 1.43421C7.35207 0.260653 8.63629 -0.188343 9.91711 0.0712118C10.5909 0.207757 11.5469 0.73835 12.1783 1.6694C12.8352 2.63811 13.1147 4.00056 12.4615 5.70942C11.9519 7.04274 10.8593 8.28475 9.75627 9.26847C8.64463 10.2599 7.46037 11.0434 6.68692 11.4478L6.4166 11.5892L6.14628 11.4478C5.37283 11.0434 4.18857 10.2599 3.07693 9.26847C1.97387 8.28475 0.881274 7.04274 0.371655 5.70942C-0.281504 4.00056 -0.00196483 2.63811 0.654945 1.6694C1.28632 0.73835 2.24229 0.207757 2.91609 0.0712118C4.19691 -0.188343 5.48113 0.260653 6.4166 1.43421Z" fill="var(--fill-0, black)" fill-opacity="0.48"/>
</svg>
