<svg preserveAspectRatio="xMidYMid meet" width="100%" height="100%" overflow="visible" style="display: block;" viewBox="0 0 19.5 21.7656" fill="none" xmlns="http://www.w3.org/2000/svg">
<path id="Union" d="M9.75 11.5C13.3081 11.5 15.8108 12.0525 17.4072 13.4199C19.055 14.8315 19.5 16.8956 19.5 19.25C19.5 19.7746 19.2076 20.1454 18.9561 20.3623C18.7073 20.5767 18.4035 20.729 18.1162 20.8428C17.5337 21.0734 16.7632 21.2449 15.918 21.375C14.2092 21.6381 11.9666 21.7656 9.75 21.7656C7.53338 21.7656 5.29076 21.6381 3.58203 21.375C2.73679 21.2449 1.96633 21.0734 1.38379 20.8428C1.09653 20.729 0.792654 20.5767 0.543945 20.3623C0.292381 20.1454 0 19.7746 0 19.25C0 16.8956 0.445007 14.8315 2.09277 13.4199C3.68919 12.0525 6.19192 11.5 9.75 11.5ZM9.75 13.5C6.29004 13.5 4.41759 14.0622 3.39355 14.9395C2.46996 15.7308 2.04443 16.9531 2.00391 18.9297C2.0378 18.9454 2.07538 18.9657 2.12012 18.9834C2.49458 19.1316 3.09145 19.276 3.88672 19.3984C5.45922 19.6405 7.59171 19.7656 9.75 19.7656C11.9083 19.7656 14.0408 19.6405 15.6133 19.3984C16.4085 19.276 17.0054 19.1316 17.3799 18.9834C17.4243 18.9658 17.4614 18.9453 17.4951 18.9297C17.4546 16.9531 17.03 15.7308 16.1064 14.9395C15.0824 14.0622 13.21 13.5 9.75 13.5ZM9.75 0C12.6495 0 15 2.35051 15 5.25C15 8.14949 12.6495 10.5 9.75 10.5C6.85051 10.5 4.5 8.14949 4.5 5.25C4.5 2.35051 6.85051 0 9.75 0ZM9.75 2C7.95507 2 6.5 3.45507 6.5 5.25C6.5 7.04493 7.95507 8.5 9.75 8.5C11.5449 8.5 13 7.04493 13 5.25C13 3.45507 11.5449 2 9.75 2Z" fill="var(--fill-0, white)" fill-opacity="0.6"/>
</svg>
