<svg preserveAspectRatio="xMidYMid meet" width="100%" height="100%" overflow="visible" style="display: block;" viewBox="0 0 53.0158 59.9989" fill="none" xmlns="http://www.w3.org/2000/svg">
<g id="Group">
<path id="Vector" d="M20.6402 23.6818V21.2842C19.8342 21.1761 19.0185 21.1073 18.1928 21.1073C8.1578 21.1073 1.72766e-05 29.2731 1.72766e-05 39.296C1.72766e-05 45.4473 3.07639 50.9009 7.76465 54.1928C4.73743 50.9403 2.93878 46.5872 2.93878 41.8017C2.92896 31.9164 10.8017 23.9177 20.6402 23.6818Z" fill="var(--fill-0, #25F4EE)"/>
<path id="Vector_2" d="M21.0725 50.1736C25.5446 50.1736 29.2598 46.5575 29.4269 42.1159L29.4367 2.56469L36.6116 2.50573C36.4642 1.69014 36.3757 0.854896 36.3757 0H26.4979L26.4783 39.6102C26.3112 44.0419 22.6648 47.6089 18.1829 47.6089C16.7872 47.6089 15.48 47.265 14.3301 46.6557C15.8437 48.7487 18.3009 50.1736 21.0725 50.1736Z" fill="var(--fill-0, #25F4EE)"/>
<path id="Vector_3" d="M50.1359 16.0181V13.7482C47.3741 13.7482 44.799 12.9228 42.6465 11.5176C44.5729 13.7285 47.1775 15.3892 50.1359 16.0181Z" fill="var(--fill-0, #25F4EE)"/>
<path id="Vector_4" d="M42.6461 11.5265C40.5427 9.1092 39.265 5.95492 39.265 2.50586H36.6211C37.3189 6.27919 39.55 9.50225 42.6461 11.5265Z" fill="var(--fill-0, #FE2C55)"/>
<path id="Vector_5" d="M18.1831 30.9927C13.6029 30.9927 9.86803 34.7169 9.86803 39.3059C9.86803 42.4994 11.6765 45.2705 14.3204 46.656C13.3375 45.2901 12.7478 43.6196 12.7478 41.8116C12.7478 37.2325 16.4729 33.4985 21.0629 33.4985C21.918 33.4985 22.7436 33.636 23.52 33.8817V23.79C22.7141 23.6819 21.8983 23.6131 21.0629 23.6131C20.9154 23.6131 20.7778 23.6229 20.6304 23.6229V31.3759C19.8638 31.1303 19.048 30.9927 18.1831 30.9927Z" fill="var(--fill-0, #FE2C55)"/>
<path id="Vector_6" d="M50.136 15.957V23.6413C45.0054 23.6413 40.2582 22.0003 36.3857 19.2194V39.3045C36.3857 49.3373 28.2181 57.4932 18.1928 57.4932C14.3105 57.4932 10.7231 56.2747 7.76465 54.1915C11.0867 57.7585 15.8241 59.9989 21.0726 59.9989C31.1077 59.9989 39.2655 51.8332 39.2655 41.8103V21.7251C43.1478 24.506 47.895 26.147 53.0158 26.147V16.2617C52.0329 16.2617 51.0697 16.1536 50.136 15.957Z" fill="var(--fill-0, #FE2C55)"/>
<path id="Vector_7" d="M36.3857 39.296V19.2108C40.268 21.9917 45.0153 23.6327 50.136 23.6327V15.9485C47.1776 15.3196 44.5631 13.7277 42.6466 11.5168C39.5505 9.50235 37.3096 6.26946 36.6118 2.49613H29.3779L29.3681 42.126C29.201 46.5577 25.5545 50.1247 21.0727 50.1247C18.301 50.1247 15.8438 48.7588 14.34 46.6658C11.6961 45.2704 9.88767 42.4994 9.88767 39.3156C9.88767 34.7365 13.6127 31.0025 18.2027 31.0025C19.0578 31.0025 19.8834 31.1401 20.65 31.3857V23.6327C10.8116 23.8587 2.87984 31.9262 2.87984 41.8115C2.87984 46.597 4.73746 50.9501 7.76468 54.2026C10.7231 56.276 14.3204 57.5043 18.1929 57.5043C28.2181 57.4945 36.3857 49.3287 36.3857 39.296Z" fill="var(--fill-0, black)"/>
</g>
</svg>
