<svg preserveAspectRatio="xMidYMid meet" width="100%" height="100%" overflow="visible" style="display: block;" viewBox="0 0 22 17" fill="none" xmlns="http://www.w3.org/2000/svg">
<g id="envelpoe_fill">
<path d="M0.217987 1.09202C0 1.51984 0 2.0799 0 3.2V4.19388L11 10.3539L22 4.19388V3.2C22 2.0799 22 1.51984 21.782 1.09202C21.5903 0.715695 21.2843 0.409734 20.908 0.217987C20.4802 0 19.9201 0 18.8 0H3.2C2.0799 0 1.51984 0 1.09202 0.217987C0.715695 0.409734 0.409734 0.715695 0.217987 1.09202Z" fill="var(--fill-0, black)"/>
<path d="M22 6.48612L11.9772 12.0989C11.3701 12.4389 10.6299 12.4389 10.0228 12.0989L0 6.48612V13.8C0 14.9201 0 15.4802 0.217987 15.908C0.409734 16.2843 0.715695 16.5903 1.09202 16.782C1.51984 17 2.0799 17 3.2 17H18.8C19.9201 17 20.4802 17 20.908 16.782C21.2843 16.5903 21.5903 16.2843 21.782 15.908C22 15.4802 22 14.9201 22 13.8V6.48612Z" fill="var(--fill-0, black)"/>
</g>
</svg>
