<svg preserveAspectRatio="xMidYMid meet" width="100%" height="100%" overflow="visible" style="display: block;" viewBox="0 0 28 28" fill="none" xmlns="http://www.w3.org/2000/svg">
<g id="facebook_circle">
<path id="Vector" d="M14 28C21.732 28 28 21.732 28 14C28 6.26801 21.732 0 14 0C6.26801 0 0 6.26801 0 14C0 21.732 6.26801 28 14 28Z" fill="var(--fill-0, white)"/>
<path id="Vector_2" d="M13.9973 0C6.26612 0 0 6.30566 0 14.0856C0 21.1146 5.11385 26.9343 11.797 28L11.8025 18.166H8.22497V14.0911H11.8025C11.8025 14.0911 11.786 11.772 11.8025 10.7395C11.8189 9.70696 12.0219 8.71307 12.5542 7.80753C13.3717 6.40505 14.6447 5.72037 16.2085 5.52711C17.4925 5.36699 18.7599 5.54368 20.0274 5.72037C20.1152 5.73141 20.1591 5.74246 20.2469 5.75902C20.2469 5.75902 20.2524 5.9081 20.2469 6.00197C20.2414 6.98482 20.2469 9.23763 20.2469 9.23763C19.6379 9.22658 18.6283 9.16584 17.9588 9.27075C16.8505 9.44192 16.214 10.1542 16.192 11.2751C16.1701 12.1475 16.1811 14.0911 16.1811 14.0911H20.0823L19.4513 18.166H16.1866V28C22.8807 26.9454 28 21.1146 28 14.0856C27.9945 6.30566 21.7284 0 13.9973 0Z" fill="var(--fill-0, #0075FA)"/>
</g>
</svg>
