<svg preserveAspectRatio="xMidYMid meet" width="100%" height="100%" overflow="visible" style="display: block;" viewBox="0 0 20.4166 23.3335" fill="none" xmlns="http://www.w3.org/2000/svg">
<path id="apple" d="M10.3707 6.72461C11.3572 6.72461 13.2337 5.45788 15.1686 5.64746C15.9776 5.66889 18.2825 5.94454 19.7692 7.95898C19.6475 8.02682 17.0245 9.46182 17.0533 12.4092C17.0857 15.9353 20.3627 17.1044 20.4166 17.1221C20.397 17.2035 19.9018 18.8079 18.6676 20.4355C17.6362 21.8692 16.5551 23.2711 14.8404 23.2969C13.174 23.3322 12.6136 22.3838 10.7018 22.3838C8.77287 22.3838 8.17585 23.2708 6.57775 23.332C4.94361 23.3888 3.69487 21.8017 2.62658 20.3809C0.492376 17.4813 -1.17042 12.2084 1.05822 8.62109C2.13804 6.86167 4.10917 5.72824 6.21349 5.69824C7.84844 5.66622 9.36586 6.7243 10.3707 6.72461ZM15.1901 0C15.3525 1.38106 14.7645 2.74054 13.9049 3.74023C13.0083 4.72388 11.5723 5.47739 10.1744 5.37988C9.99244 4.05233 10.7 2.63978 11.4928 1.77832C12.3894 0.800112 13.9455 0.0514296 15.1901 0Z" fill="var(--fill-0, black)"/>
</svg>
