<svg preserveAspectRatio="none" width="100%" height="100%" overflow="visible" style="display: block;" viewBox="0 0 106.419 68.9095" fill="none" xmlns="http://www.w3.org/2000/svg">
<g id="primary_fill">
<path d="M65.2567 23.9941C66.3817 -7.38085 42.8817 -3.00585 40.3817 9.11915C38.7984 13.7025 36.9317 23.6691 42.1317 26.8691C31.3808 28.7441 4.00576 39.7441 0.380756 51.7441C-3.24424 63.7441 20.1329 70.4941 23.1329 67.1191C25.5329 64.4191 24.1329 61.4108 23.1329 60.2441C25.1751 60.2858 30.1343 60.0691 29.6343 58.8691C29.1343 57.6691 28.0093 56.0358 27.5093 55.3691L49.6322 53.4941L60.8817 55.3691L65.8828 57.5821C64.1745 57.9988 61.7817 59.1691 60.8817 61.3691C59.9817 63.5691 62.1733 63.8691 63.3817 63.7441C61.5483 66.2858 59.7317 70.7191 67.1317 68.1191C76.3818 64.8691 94.5078 53.2071 95.5078 46.3321C96.5078 39.4571 87.8817 29.8691 65.2567 23.9941Z" fill="var(--fill-0, #6DE7E3)"/>
<path d="M106.419 5.42957L87.9132 28.0004L74.45 17.4242L79.0674 11.5454L86.7735 17.5987L100.638 0.689992L106.419 5.42957Z" fill="var(--fill-0, #6DE7E3)"/>
</g>
</svg>
